<svg width="234" height="46" viewBox="0 0 234 46" fill="none" xmlns="http://www.w3.org/2000/svg">
<rect width="46" height="46" rx="23" fill="#F8F8F8"/>
<path d="M10.1985 29.5146V29.558H10.0512C10.0512 29.558 10.0512 29.532 10.0512 29.519L10.1985 29.5146ZM39.3847 23.09C39.3733 27.2218 37.8275 31.2021 35.0472 34.2585C32.2669 37.315 28.4504 39.2297 24.3381 39.6312C20.2258 40.0327 16.111 38.8923 12.792 36.4313C9.47307 33.9703 7.18662 30.3641 6.3763 26.3125C5.56598 22.2609 6.28957 18.0527 8.40668 14.5045C10.5238 10.9563 13.8835 8.32099 17.8338 7.10993C21.7842 5.89888 26.0436 6.19842 29.7856 7.95043C33.5276 9.70245 36.4854 12.782 38.085 16.5916C38.9493 18.6488 39.3913 20.8586 39.3847 23.09ZM36.9976 23.09C36.9994 20.915 36.5063 18.7681 35.5556 16.8119C34.6048 14.8558 33.2215 13.1416 31.5102 11.7991C29.7989 10.4567 27.8046 9.52132 25.6783 9.06373C23.552 8.60613 21.3495 8.63837 19.2375 9.15799C17.1255 9.67761 15.1594 10.671 13.4882 12.0629C11.8169 13.4548 10.4843 15.2088 9.59124 17.1919C8.69817 19.1751 8.26807 21.3355 8.3335 23.5095C8.39894 25.6835 8.95819 27.8141 9.96892 29.7399C10.2033 29.6815 10.4323 29.6033 10.6534 29.506C10.961 29.363 11.2469 29.1767 11.5415 29.0078L11.5978 28.9558L11.5112 28.8821C11.4765 28.8475 11.4895 28.8258 11.5329 28.8128C11.5762 28.7998 11.5329 28.8128 11.5329 28.8128C11.6931 28.8821 11.8881 28.8475 12.0181 28.9948L12.0441 29.0251L12.2867 29.1681C12.3473 29.2027 12.4036 29.2374 12.4123 29.1074L12.9711 29.3457C13.0094 29.2844 13.0614 29.2329 13.1231 29.1953C13.1848 29.1577 13.2544 29.135 13.3264 29.1291C13.462 29.1017 13.5942 29.0596 13.7206 29.0034L14.0672 28.7608C13.8824 28.8665 13.6898 28.9577 13.491 29.0338C13.4835 29.037 13.4754 29.0386 13.4672 29.0386C13.459 29.0386 13.4509 29.037 13.4434 29.0338L13.8203 28.8561C14.1678 28.6915 14.4867 28.4721 14.7647 28.2063L15.3625 27.4395C15.4519 27.2535 15.5174 27.057 15.5575 26.8547C15.6399 26.3511 15.6399 25.8376 15.5575 25.334C15.5575 25.2647 15.5575 25.1954 15.5575 25.1304C15.5575 25.0655 15.5575 25.1304 15.5575 25.1044L15.4968 25.2431L15.4752 25.2127C15.4535 25.0741 15.4405 24.9398 15.4145 24.8055C15.3885 24.6712 15.3582 24.6062 15.3322 24.5066C15.2846 24.3376 15.2456 24.1687 15.1892 24.0041C15.1329 23.8394 15.0463 23.6228 14.9683 23.4365C14.8903 23.2503 14.8037 23.0596 14.7257 22.8647C14.6954 22.7867 14.6867 22.6957 14.6607 22.6134C14.6583 22.5663 14.6417 22.521 14.6131 22.4834C14.4268 22.2972 14.4354 22.0026 14.2232 21.825C14.1365 21.7556 14.1149 21.617 14.0585 21.5087L14.0152 21.4264C14.0152 21.4004 13.9719 21.3657 13.9762 21.3397C13.9762 21.1751 13.8852 21.0711 13.8116 20.9455C13.7746 20.8656 13.7484 20.7811 13.7336 20.6942C13.7296 20.6459 13.7208 20.598 13.7076 20.5513C13.647 20.404 13.569 20.2697 13.5213 20.1181C13.4731 19.9619 13.4355 19.8027 13.4087 19.6415C13.3524 19.3253 13.3221 19.009 13.2441 18.7014C13.1964 18.5065 13.2224 18.3115 13.1834 18.1209C13.1655 18.0355 13.1582 17.9482 13.1618 17.861C13.1618 17.796 13.2008 17.731 13.2094 17.666C13.2622 17.3905 13.2869 17.1104 13.2831 16.8299C13.2547 16.5452 13.2918 16.2577 13.3914 15.9894C13.4112 15.9087 13.4199 15.8256 13.4174 15.7425C13.4174 15.7165 13.4174 15.6819 13.4174 15.6732C13.5387 15.5909 13.5387 15.4566 13.5647 15.3353C13.6296 15.0234 13.6816 14.7114 13.7466 14.3995C13.7734 14.3127 13.8113 14.2297 13.8593 14.1526C13.9 14.0835 13.9448 14.017 13.9936 13.9533L14.3185 13.5201C14.4524 13.3509 14.5767 13.1745 14.691 12.9916C14.8594 12.7016 15.1055 12.4645 15.4015 12.3071C15.7853 12.0919 16.1518 11.8471 16.4976 11.5749C17.1054 11.0897 17.8245 10.7636 18.59 10.6262C18.9236 10.5655 19.2442 10.4485 19.5691 10.3619L19.894 10.2752C19.9126 10.271 19.9318 10.271 19.9504 10.2752C20.111 10.3163 20.2793 10.3163 20.4399 10.2752C20.7042 10.2406 20.9728 10.2059 21.237 10.1799C21.419 10.1799 21.6009 10.1539 21.7829 10.1453C21.8479 10.1453 21.9129 10.1756 21.9735 10.1756C22.1251 10.1756 22.2724 10.1756 22.4067 10.1756C22.8805 10.1258 23.3582 10.1258 23.832 10.1756C24.1093 10.2103 24.3865 10.2709 24.6595 10.3186H24.6855C24.8536 10.3298 25.0169 10.3802 25.162 10.4659C25.3483 10.5352 25.5303 10.6262 25.7209 10.6955C26.0474 10.813 26.3332 11.022 26.544 11.2977C26.7775 11.6057 26.9657 11.9456 27.1029 12.3071C27.1161 12.3415 27.132 12.3748 27.1505 12.4067C27.323 12.6756 27.4571 12.9672 27.5491 13.2731C27.6104 13.4465 27.6568 13.6248 27.6877 13.806C27.7242 13.983 27.8013 14.1491 27.913 14.2912C28.0559 14.4732 28.1946 14.6638 28.3462 14.8501C28.3979 14.9211 28.4456 14.9948 28.4892 15.071C28.5282 15.1403 28.5541 15.2226 28.5975 15.292C28.6467 15.3783 28.7064 15.4584 28.7751 15.5302C29.0525 15.821 29.2248 16.1961 29.2646 16.596C29.2745 16.6562 29.289 16.7156 29.308 16.7736C29.347 16.9271 29.347 17.0879 29.308 17.2415C29.2546 17.4789 29.2443 17.7239 29.2776 17.9649C29.2862 18.0861 29.2862 18.2077 29.2776 18.3288C29.2769 18.362 29.2844 18.3948 29.2995 18.4243C29.3147 18.4538 29.3369 18.4791 29.3643 18.4978C29.5289 18.6148 29.6979 18.7361 29.8581 18.8617C29.9116 18.9094 29.9609 18.9616 30.0054 19.0177C30.1397 19.165 30.287 19.3079 30.4127 19.4509C30.6303 19.7088 30.739 20.0413 30.7159 20.378C30.7179 20.3924 30.7179 20.4069 30.7159 20.4213C30.6565 20.5936 30.6186 20.7726 30.6033 20.9542C30.5962 21.059 30.5675 21.1612 30.519 21.2543C30.4706 21.3475 30.4034 21.4297 30.3217 21.4957C30.287 21.5217 30.2567 21.5564 30.2177 21.591L30.4647 21.7556C30.5178 21.7851 30.5642 21.8253 30.6007 21.8739C30.6373 21.9224 30.6633 21.978 30.6769 22.0372C30.7014 22.1482 30.7392 22.2559 30.7896 22.3578C30.8459 22.4661 30.7896 22.5831 30.8372 22.6784C30.8849 22.7737 30.8589 22.8604 30.8632 22.9557C30.8632 22.9297 30.8632 22.8993 30.8632 22.8777C30.8286 23.0336 30.7982 23.1896 30.7636 23.3456L30.7939 23.3846C31.0322 23.6705 30.6163 24.4763 30.6163 24.4763C30.547 24.5889 30.4733 24.7059 30.4127 24.8228C30.3482 24.9429 30.2959 25.0692 30.2567 25.1998C30.2134 25.334 30.3 25.4337 30.378 25.5247C30.4616 25.6335 30.5721 25.7186 30.6986 25.7716C30.7419 25.7716 30.7636 25.8496 30.7982 25.8886L30.9455 26.0705C30.9869 26.1186 31.0232 26.1709 31.0538 26.2265C31.1361 26.3868 31.1535 26.5774 31.3051 26.7117C31.3571 26.755 31.3614 26.8633 31.3614 26.9456C31.3518 27.0152 31.3343 27.0835 31.3094 27.1493C31.2531 27.3269 31.2055 27.5045 31.1448 27.6821C31.1145 27.7818 31.0712 27.8814 31.0322 27.9767C30.9932 28.072 30.9542 28.1153 30.9282 28.189C30.9116 28.2607 30.8722 28.3252 30.816 28.3728C30.7598 28.4204 30.6898 28.4486 30.6163 28.4532L30.4603 28.4792C30.4139 28.481 30.3687 28.4941 30.3287 28.5176C30.2886 28.541 30.255 28.574 30.2307 28.6135C30.1534 28.7361 30.041 28.8326 29.9081 28.8905C29.7752 28.9485 29.628 28.9652 29.4856 28.9385C29.1727 28.9006 28.8648 28.8295 28.5671 28.7262C28.4493 28.7073 28.3419 28.6475 28.2639 28.5572C28.2424 28.5392 28.2173 28.5259 28.1902 28.5182C27.9615 28.4019 27.7489 28.2562 27.5577 28.085C27.4897 28.0386 27.4131 28.0062 27.3325 27.9897C27.2935 27.9897 27.2458 27.9897 27.2068 27.9637C26.9908 27.9065 26.7672 27.8832 26.544 27.8944C26.3063 27.9165 26.0818 28.0136 25.9028 28.1717C25.5585 28.4847 25.2738 28.8575 25.0624 29.272C24.9064 29.5493 24.7808 29.8396 24.6292 30.1385C24.5704 30.284 24.5495 30.442 24.5685 30.5977C24.5583 30.915 24.5133 31.2303 24.4342 31.5378C24.3822 31.7717 24.3389 32.01 24.2912 32.2483C24.282 32.2822 24.2852 32.3184 24.3003 32.3502C24.3154 32.3819 24.3414 32.4073 24.3736 32.4216C24.6811 32.6165 24.9887 32.8201 25.3006 33.0064C25.4479 33.0974 25.6126 33.1494 25.7642 33.2274C26.1996 33.467 26.5931 33.7757 26.9296 34.1415C27.3466 34.5903 27.8099 34.994 28.3115 35.3458C28.4242 35.4238 28.5585 35.4671 28.6754 35.5408C28.7924 35.6144 28.983 35.766 29.139 35.8657C31.5003 34.6688 33.4843 32.8417 34.8713 30.5869C36.2583 28.332 36.9942 25.7373 36.9976 23.09Z" fill="#323232"/>
<path d="M89.3068 30H84.598V15.4545H89.456C90.8812 15.4545 92.1051 15.7457 93.1278 16.3281C94.1506 16.9058 94.9342 17.7367 95.4787 18.821C96.0279 19.9006 96.3026 21.1955 96.3026 22.706C96.3026 24.2211 96.0256 25.5232 95.4716 26.6122C94.9223 27.7012 94.1269 28.5393 93.0852 29.1264C92.0436 29.7088 90.7841 30 89.3068 30ZM86.7926 28.0824H89.1861C90.294 28.0824 91.215 27.8741 91.9489 27.4574C92.6828 27.036 93.232 26.4276 93.5966 25.6321C93.9612 24.8319 94.1435 23.8565 94.1435 22.706C94.1435 21.5649 93.9612 20.5966 93.5966 19.8011C93.2367 19.0057 92.6993 18.402 91.9844 17.9901C91.2694 17.5781 90.3816 17.3722 89.321 17.3722H86.7926V28.0824ZM102.036 30.2415C101.345 30.2415 100.72 30.1136 100.161 29.858C99.6022 29.5975 99.1594 29.2211 98.8327 28.7287C98.5108 28.2363 98.3498 27.6326 98.3498 26.9176C98.3498 26.3021 98.4682 25.7955 98.7049 25.3977C98.9416 25 99.2612 24.6851 99.6637 24.4531C100.066 24.2211 100.516 24.0459 101.013 23.9276C101.51 23.8092 102.017 23.7192 102.533 23.6577C103.186 23.5819 103.717 23.5204 104.124 23.473C104.531 23.4209 104.827 23.3381 105.012 23.2244C105.196 23.1108 105.289 22.9261 105.289 22.6705V22.6207C105.289 22.0005 105.114 21.5199 104.763 21.179C104.417 20.8381 103.901 20.6676 103.215 20.6676C102.5 20.6676 101.936 20.8262 101.525 21.1435C101.117 21.456 100.836 21.804 100.679 22.1875L98.6836 21.733C98.9203 21.0701 99.266 20.535 99.7205 20.1278C100.18 19.7159 100.708 19.4176 101.304 19.233C101.901 19.0436 102.528 18.9489 103.186 18.9489C103.622 18.9489 104.084 19.0009 104.571 19.1051C105.064 19.2045 105.523 19.3892 105.949 19.6591C106.38 19.929 106.733 20.3149 107.007 20.8168C107.282 21.3139 107.419 21.9602 107.419 22.7557V30H105.346V28.5085H105.26C105.123 28.7831 104.917 29.053 104.642 29.3182C104.368 29.5833 104.015 29.8035 103.584 29.9787C103.153 30.1539 102.637 30.2415 102.036 30.2415ZM102.498 28.5369C103.085 28.5369 103.587 28.4209 104.003 28.1889C104.425 27.9569 104.744 27.6539 104.962 27.2798C105.185 26.901 105.296 26.4962 105.296 26.0653V24.6591C105.22 24.7348 105.073 24.8059 104.855 24.8722C104.642 24.9337 104.399 24.9882 104.124 25.0355C103.849 25.0781 103.582 25.1184 103.321 25.1562C103.061 25.1894 102.843 25.2178 102.668 25.2415C102.256 25.2936 101.88 25.3812 101.539 25.5043C101.203 25.6274 100.933 25.8049 100.729 26.0369C100.53 26.2642 100.431 26.5672 100.431 26.946C100.431 27.4716 100.625 27.8693 101.013 28.1392C101.401 28.4044 101.896 28.5369 102.498 28.5369ZM112.371 23.5227V30H110.248V19.0909H112.286V20.8665H112.421C112.672 20.2888 113.065 19.8248 113.6 19.4744C114.14 19.1241 114.819 18.9489 115.638 18.9489C116.382 18.9489 117.033 19.1051 117.592 19.4176C118.15 19.7254 118.584 20.1847 118.891 20.7955C119.199 21.4062 119.353 22.1615 119.353 23.0611V30H117.229V23.3168C117.229 22.526 117.023 21.9081 116.612 21.4631C116.2 21.0133 115.634 20.7884 114.914 20.7884C114.422 20.7884 113.984 20.8949 113.6 21.108C113.221 21.321 112.921 21.6335 112.698 22.0455C112.48 22.4527 112.371 22.9451 112.371 23.5227ZM122.201 30V19.0909H124.325V30H122.201ZM123.273 17.4077C122.904 17.4077 122.587 17.2846 122.322 17.0384C122.061 16.7874 121.931 16.4891 121.931 16.1435C121.931 15.7931 122.061 15.4948 122.322 15.2486C122.587 14.9976 122.904 14.8722 123.273 14.8722C123.643 14.8722 123.958 14.9976 124.218 15.2486C124.483 15.4948 124.616 15.7931 124.616 16.1435C124.616 16.4891 124.483 16.7874 124.218 17.0384C123.958 17.2846 123.643 17.4077 123.273 17.4077ZM131.883 30.2202C130.808 30.2202 129.883 29.9905 129.106 29.5312C128.334 29.0672 127.738 28.4162 127.316 27.5781C126.9 26.7353 126.691 25.7481 126.691 24.6165C126.691 23.4991 126.9 22.5142 127.316 21.6619C127.738 20.8097 128.325 20.1444 129.078 19.6662C129.835 19.188 130.721 18.9489 131.734 18.9489C132.35 18.9489 132.946 19.0507 133.524 19.2543C134.101 19.4579 134.62 19.7775 135.079 20.2131C135.538 20.6487 135.901 21.2145 136.166 21.9105C136.431 22.6018 136.564 23.4422 136.564 24.4318V25.1847H127.892V23.5938H134.483C134.483 23.035 134.369 22.5402 134.142 22.1094C133.914 21.6738 133.595 21.3305 133.183 21.0795C132.776 20.8286 132.297 20.7031 131.748 20.7031C131.152 20.7031 130.631 20.8499 130.186 21.1435C129.745 21.4323 129.404 21.8111 129.163 22.2798C128.926 22.7438 128.808 23.2481 128.808 23.7926V25.0355C128.808 25.7647 128.936 26.3849 129.191 26.8963C129.452 27.4077 129.814 27.7983 130.278 28.0682C130.742 28.3333 131.284 28.4659 131.904 28.4659C132.307 28.4659 132.674 28.4091 133.005 28.2955C133.337 28.1771 133.623 28.0019 133.865 27.7699C134.106 27.5379 134.291 27.2514 134.419 26.9105L136.429 27.2727C136.268 27.8646 135.979 28.383 135.562 28.8281C135.15 29.2685 134.632 29.6117 134.007 29.858C133.386 30.0994 132.679 30.2202 131.883 30.2202ZM141.043 15.4545V30H138.92V15.4545H141.043ZM155.017 15.4545H157.205V25.767C157.205 26.6998 157.02 27.4976 156.651 28.1605C156.286 28.8234 155.772 29.33 155.109 29.6804C154.446 30.026 153.67 30.1989 152.78 30.1989C151.961 30.1989 151.224 30.0497 150.571 29.7514C149.922 29.4531 149.409 29.0199 149.03 28.4517C148.656 27.8788 148.469 27.1828 148.469 26.3636H150.649C150.649 26.7661 150.741 27.1141 150.926 27.4077C151.116 27.7012 151.374 27.9309 151.7 28.0966C152.032 28.2576 152.411 28.3381 152.837 28.3381C153.301 28.3381 153.694 28.241 154.016 28.0469C154.342 27.848 154.591 27.5568 154.761 27.1733C154.932 26.7898 155.017 26.321 155.017 25.767V15.4545ZM160.228 30V19.0909H162.352V30H160.228ZM161.301 17.4077C160.931 17.4077 160.614 17.2846 160.349 17.0384C160.089 16.7874 159.958 16.4891 159.958 16.1435C159.958 15.7931 160.089 15.4948 160.349 15.2486C160.614 14.9976 160.931 14.8722 161.301 14.8722C161.67 14.8722 161.985 14.9976 162.245 15.2486C162.511 15.4948 162.643 15.7931 162.643 16.1435C162.643 16.4891 162.511 16.7874 162.245 17.0384C161.985 17.2846 161.67 17.4077 161.301 17.4077ZM167.332 23.5227V30H165.209V19.0909H167.247V20.8665H167.382C167.633 20.2888 168.026 19.8248 168.561 19.4744C169.101 19.1241 169.78 18.9489 170.599 18.9489C171.343 18.9489 171.994 19.1051 172.553 19.4176C173.111 19.7254 173.545 20.1847 173.852 20.7955C174.16 21.4062 174.314 22.1615 174.314 23.0611V30H172.19V23.3168C172.19 22.526 171.984 21.9081 171.572 21.4631C171.161 21.0133 170.595 20.7884 169.875 20.7884C169.383 20.7884 168.945 20.8949 168.561 21.108C168.182 21.321 167.882 21.6335 167.659 22.0455C167.441 22.4527 167.332 22.9451 167.332 23.5227ZM177.162 30V19.0909H179.2V20.8665H179.335C179.563 20.2652 179.934 19.7964 180.45 19.4602C180.966 19.1193 181.584 18.9489 182.304 18.9489C183.033 18.9489 183.644 19.1193 184.136 19.4602C184.634 19.8011 185 20.2699 185.237 20.8665H185.351C185.611 20.2841 186.026 19.8201 186.594 19.4744C187.162 19.1241 187.839 18.9489 188.625 18.9489C189.615 18.9489 190.422 19.259 191.047 19.8793C191.677 20.4995 191.991 21.4347 191.991 22.6847V30H189.868V22.8835C189.868 22.1449 189.667 21.6098 189.264 21.2784C188.862 20.947 188.381 20.7812 187.822 20.7812C187.131 20.7812 186.594 20.9943 186.21 21.4205C185.827 21.8419 185.635 22.384 185.635 23.0469V30H183.518V22.7486C183.518 22.1567 183.334 21.6809 182.964 21.321C182.595 20.9612 182.115 20.7812 181.523 20.7812C181.12 20.7812 180.749 20.8878 180.408 21.1009C180.071 21.3092 179.799 21.6004 179.591 21.9744C179.387 22.3485 179.286 22.7817 179.286 23.2741V30H177.162ZM194.838 30V19.0909H196.961V30H194.838ZM195.91 17.4077C195.541 17.4077 195.224 17.2846 194.958 17.0384C194.698 16.7874 194.568 16.4891 194.568 16.1435C194.568 15.7931 194.698 15.4948 194.958 15.2486C195.224 14.9976 195.541 14.8722 195.91 14.8722C196.279 14.8722 196.594 14.9976 196.855 15.2486C197.12 15.4948 197.252 15.7931 197.252 16.1435C197.252 16.4891 197.12 16.7874 196.855 17.0384C196.594 17.2846 196.279 17.4077 195.91 17.4077ZM217.917 22.7273C217.917 24.2803 217.632 25.6155 217.064 26.733C216.496 27.8456 215.717 28.7027 214.728 29.304C213.743 29.9006 212.623 30.1989 211.368 30.1989C210.109 30.1989 208.984 29.9006 207.995 29.304C207.01 28.7027 206.233 27.8433 205.665 26.7259C205.097 25.6084 204.813 24.2756 204.813 22.7273C204.813 21.1742 205.097 19.8414 205.665 18.7287C206.233 17.6113 207.01 16.7543 207.995 16.1577C208.984 15.5563 210.109 15.2557 211.368 15.2557C212.623 15.2557 213.743 15.5563 214.728 16.1577C215.717 16.7543 216.496 17.6113 217.064 18.7287C217.632 19.8414 217.917 21.1742 217.917 22.7273ZM215.743 22.7273C215.743 21.5436 215.551 20.5469 215.168 19.7372C214.789 18.9228 214.268 18.3073 213.605 17.8906C212.947 17.4692 212.202 17.2585 211.368 17.2585C210.53 17.2585 209.782 17.4692 209.124 17.8906C208.466 18.3073 207.945 18.9228 207.561 19.7372C207.183 20.5469 206.993 21.5436 206.993 22.7273C206.993 23.911 207.183 24.91 207.561 25.7244C207.945 26.5341 208.466 27.1496 209.124 27.571C209.782 27.9877 210.53 28.196 211.368 28.196C212.202 28.196 212.947 27.9877 213.605 27.571C214.268 27.1496 214.789 26.5341 215.168 25.7244C215.551 24.91 215.743 23.911 215.743 22.7273ZM220.963 30.1349C220.575 30.1349 220.241 29.9976 219.962 29.723C219.683 29.4437 219.543 29.1075 219.543 28.7145C219.543 28.3262 219.683 27.9948 219.962 27.7202C220.241 27.4408 220.575 27.3011 220.963 27.3011C221.352 27.3011 221.685 27.4408 221.965 27.7202C222.244 27.9948 222.384 28.3262 222.384 28.7145C222.384 28.9749 222.318 29.214 222.185 29.4318C222.057 29.6449 221.887 29.8153 221.674 29.9432C221.461 30.071 221.224 30.1349 220.963 30.1349Z" fill="#F5F5F5"/>
</svg>
