<svg width="217" height="46" viewBox="0 0 217 46" fill="none" xmlns="http://www.w3.org/2000/svg">
<g filter="url(#filter0_ii_602_2093)">
<rect width="46" height="46" rx="23" fill="#F8F8F8"/>
</g>
<path d="M10.1984 29.5146V29.558H10.0511C10.0511 29.558 10.0511 29.532 10.0511 29.519L10.1984 29.5146ZM39.3846 23.09C39.3732 27.2218 37.8274 31.2021 35.0471 34.2585C32.2668 37.315 28.4502 39.2297 24.338 39.6312C20.2257 40.0327 16.1109 38.8923 12.7919 36.4313C9.47295 33.9703 7.1865 30.3641 6.37618 26.3125C5.56586 22.2609 6.28945 18.0527 8.40656 14.5045C10.5237 10.9563 13.8833 8.32099 17.8337 7.10993C21.7841 5.89888 26.0435 6.19842 29.7855 7.95043C33.5275 9.70245 36.4852 12.782 38.0849 16.5916C38.9492 18.6488 39.3912 20.8586 39.3846 23.09ZM36.9975 23.09C36.9993 20.915 36.5062 18.7681 35.5554 16.8119C34.6047 14.8558 33.2213 13.1416 31.5101 11.7991C29.7988 10.4567 27.8045 9.52132 25.6782 9.06373C23.5519 8.60613 21.3494 8.63837 19.2374 9.15799C17.1254 9.67761 15.1593 10.671 13.4881 12.0629C11.8168 13.4548 10.4842 15.2088 9.59112 17.1919C8.69805 19.1751 8.26795 21.3355 8.33338 23.5095C8.39881 25.6835 8.95807 27.8141 9.9688 29.7399C10.2032 29.6815 10.4322 29.6033 10.6533 29.506C10.9609 29.363 11.2468 29.1767 11.5414 29.0078L11.5977 28.9558L11.5111 28.8821C11.4764 28.8475 11.4894 28.8258 11.5327 28.8128C11.5761 28.7998 11.5327 28.8128 11.5327 28.8128C11.693 28.8821 11.888 28.8475 12.0179 28.9948L12.0439 29.0251L12.2865 29.1681C12.3472 29.2027 12.4035 29.2374 12.4122 29.1074L12.971 29.3457C13.0093 29.2844 13.0613 29.2329 13.123 29.1953C13.1847 29.1577 13.2543 29.135 13.3263 29.1291C13.4619 29.1017 13.5941 29.0596 13.7205 29.0034L14.0671 28.7608C13.8823 28.8665 13.6897 28.9577 13.4909 29.0338C13.4834 29.037 13.4753 29.0386 13.4671 29.0386C13.4589 29.0386 13.4508 29.037 13.4432 29.0338L13.8201 28.8561C14.1677 28.6915 14.4866 28.4721 14.7646 28.2063L15.3624 27.4395C15.4517 27.2535 15.5172 27.057 15.5574 26.8547C15.6398 26.3511 15.6398 25.8376 15.5574 25.334C15.5574 25.2647 15.5574 25.1954 15.5574 25.1304C15.5574 25.0655 15.5574 25.1304 15.5574 25.1044L15.4967 25.2431L15.475 25.2127C15.4534 25.0741 15.4404 24.9398 15.4144 24.8055C15.3884 24.6712 15.3581 24.6062 15.3321 24.5066C15.2844 24.3376 15.2454 24.1687 15.1891 24.0041C15.1328 23.8394 15.0462 23.6228 14.9682 23.4365C14.8902 23.2503 14.8036 23.0596 14.7256 22.8647C14.6953 22.7867 14.6866 22.6957 14.6606 22.6134C14.6582 22.5663 14.6416 22.521 14.6129 22.4834C14.4267 22.2972 14.4353 22.0026 14.223 21.825C14.1364 21.7556 14.1147 21.617 14.0584 21.5087L14.0151 21.4264C14.0151 21.4004 13.9718 21.3657 13.9761 21.3397C13.9761 21.1751 13.8851 21.0711 13.8115 20.9455C13.7745 20.8656 13.7483 20.7811 13.7335 20.6942C13.7294 20.6459 13.7207 20.598 13.7075 20.5513C13.6469 20.404 13.5689 20.2697 13.5212 20.1181C13.473 19.9619 13.4353 19.8027 13.4086 19.6415C13.3523 19.3253 13.3219 19.009 13.244 18.7014C13.1963 18.5065 13.2223 18.3115 13.1833 18.1209C13.1653 18.0355 13.1581 17.9482 13.1616 17.861C13.1616 17.796 13.2006 17.731 13.2093 17.666C13.2621 17.3905 13.2868 17.1104 13.2829 16.8299C13.2546 16.5452 13.2917 16.2577 13.3913 15.9894C13.4111 15.9087 13.4198 15.8256 13.4172 15.7425C13.4172 15.7165 13.4172 15.6819 13.4172 15.6732C13.5385 15.5909 13.5385 15.4566 13.5645 15.3353C13.6295 15.0234 13.6815 14.7114 13.7465 14.3995C13.7733 14.3127 13.8111 14.2297 13.8591 14.1526C13.8999 14.0835 13.9447 14.017 13.9934 13.9533L14.3183 13.5201C14.4522 13.3509 14.5766 13.1745 14.6909 12.9916C14.8593 12.7016 15.1054 12.4645 15.4014 12.3071C15.7852 12.0919 16.1517 11.8471 16.4975 11.5749C17.1052 11.0897 17.8244 10.7636 18.5899 10.6262C18.9235 10.5655 19.2441 10.4485 19.569 10.3619L19.8939 10.2752C19.9124 10.271 19.9317 10.271 19.9502 10.2752C20.1108 10.3163 20.2792 10.3163 20.4398 10.2752C20.704 10.2406 20.9726 10.2059 21.2369 10.1799C21.4189 10.1799 21.6008 10.1539 21.7828 10.1453C21.8477 10.1453 21.9127 10.1756 21.9734 10.1756C22.125 10.1756 22.2723 10.1756 22.4066 10.1756C22.8804 10.1258 23.3581 10.1258 23.8319 10.1756C24.1092 10.2103 24.3864 10.2709 24.6594 10.3186H24.6854C24.8535 10.3298 25.0167 10.3802 25.1619 10.4659C25.3482 10.5352 25.5301 10.6262 25.7208 10.6955C26.0473 10.813 26.333 11.022 26.5439 11.2977C26.7774 11.6057 26.9656 11.9456 27.1027 12.3071C27.116 12.3415 27.1319 12.3748 27.1504 12.4067C27.3228 12.6756 27.457 12.9672 27.549 13.2731C27.6103 13.4465 27.6567 13.6248 27.6876 13.806C27.724 13.983 27.8012 14.1491 27.9129 14.2912C28.0558 14.4732 28.1945 14.6638 28.3461 14.8501C28.3977 14.9211 28.4455 14.9948 28.489 15.071C28.528 15.1403 28.554 15.2226 28.5973 15.292C28.6466 15.3783 28.7063 15.4584 28.775 15.5302C29.0524 15.821 29.2247 16.1961 29.2645 16.596C29.2743 16.6562 29.2888 16.7156 29.3078 16.7736C29.3469 16.9271 29.3469 17.0879 29.3078 17.2415C29.2545 17.4789 29.2442 17.7239 29.2775 17.9649C29.2861 18.0861 29.2861 18.2077 29.2775 18.3288C29.2768 18.362 29.2843 18.3948 29.2994 18.4243C29.3145 18.4538 29.3368 18.4791 29.3641 18.4978C29.5288 18.6148 29.6977 18.7361 29.858 18.8617C29.9115 18.9094 29.9608 18.9616 30.0053 19.0177C30.1396 19.165 30.2869 19.3079 30.4125 19.4509C30.6302 19.7088 30.7389 20.0413 30.7158 20.378C30.7178 20.3924 30.7178 20.4069 30.7158 20.4213C30.6563 20.5936 30.6185 20.7726 30.6032 20.9542C30.5961 21.059 30.5674 21.1612 30.5189 21.2543C30.4705 21.3475 30.4033 21.4297 30.3216 21.4957C30.2869 21.5217 30.2566 21.5564 30.2176 21.591L30.4645 21.7556C30.5177 21.7851 30.5641 21.8253 30.6006 21.8739C30.6372 21.9224 30.6632 21.978 30.6768 22.0372C30.7013 22.1482 30.7391 22.2559 30.7895 22.3578C30.8458 22.4661 30.7894 22.5831 30.8371 22.6784C30.8848 22.7737 30.8588 22.8604 30.8631 22.9557C30.8631 22.9297 30.8631 22.8993 30.8631 22.8777C30.8284 23.0336 30.7981 23.1896 30.7635 23.3456L30.7938 23.3846C31.0321 23.6705 30.6162 24.4763 30.6162 24.4763C30.5468 24.5889 30.4732 24.7059 30.4125 24.8228C30.3481 24.9429 30.2958 25.0692 30.2566 25.1998C30.2133 25.334 30.2999 25.4337 30.3779 25.5247C30.4614 25.6335 30.5719 25.7186 30.6985 25.7716C30.7418 25.7716 30.7635 25.8496 30.7981 25.8886L30.9454 26.0705C30.9868 26.1186 31.0231 26.1709 31.0537 26.2265C31.136 26.3868 31.1534 26.5774 31.305 26.7117C31.357 26.755 31.3613 26.8633 31.3613 26.9456C31.3516 27.0152 31.3342 27.0835 31.3093 27.1493C31.253 27.3269 31.2053 27.5045 31.1447 27.6821C31.1144 27.7818 31.071 27.8814 31.0321 27.9767C30.9931 28.072 30.9541 28.1153 30.9281 28.189C30.9114 28.2607 30.8721 28.3252 30.8159 28.3728C30.7597 28.4204 30.6897 28.4486 30.6162 28.4532L30.4602 28.4792C30.4138 28.481 30.3686 28.4941 30.3285 28.5176C30.2885 28.541 30.2548 28.574 30.2306 28.6135C30.1532 28.7361 30.0408 28.8326 29.908 28.8905C29.7751 28.9485 29.6279 28.9652 29.4855 28.9385C29.1726 28.9006 28.8647 28.8295 28.567 28.7262C28.4492 28.7073 28.3418 28.6475 28.2638 28.5572C28.2422 28.5392 28.2171 28.5259 28.1901 28.5182C27.9614 28.4019 27.7488 28.2562 27.5576 28.085C27.4896 28.0386 27.413 28.0062 27.3323 27.9897C27.2933 27.9897 27.2457 27.9897 27.2067 27.9637C26.9907 27.9065 26.7671 27.8832 26.5439 27.8944C26.3062 27.9165 26.0816 28.0136 25.9027 28.1717C25.5584 28.4847 25.2736 28.8575 25.0623 29.272C24.9063 29.5493 24.7807 29.8396 24.629 30.1385C24.5703 30.284 24.5494 30.442 24.5684 30.5977C24.5582 30.915 24.5132 31.2303 24.4341 31.5378C24.3821 31.7717 24.3388 32.01 24.2911 32.2483C24.2819 32.2822 24.2851 32.3184 24.3002 32.3502C24.3153 32.3819 24.3413 32.4073 24.3734 32.4216C24.681 32.6165 24.9886 32.8201 25.3005 33.0064C25.4478 33.0974 25.6124 33.1494 25.7641 33.2274C26.1994 33.467 26.593 33.7757 26.9294 34.1415C27.3465 34.5903 27.8097 34.994 28.3114 35.3458C28.4241 35.4238 28.5584 35.4671 28.6753 35.5408C28.7923 35.6144 28.9829 35.766 29.1389 35.8657C31.5001 34.6688 33.4841 32.8417 34.8711 30.5869C36.2582 28.332 36.9941 25.7373 36.9975 23.09Z" fill="#323232"/>
<path d="M72.3068 30H67.598V15.4545H72.456C73.8812 15.4545 75.1051 15.7457 76.1278 16.3281C77.1506 16.9058 77.9342 17.7367 78.4787 18.821C79.0279 19.9006 79.3026 21.1955 79.3026 22.706C79.3026 24.2211 79.0256 25.5232 78.4716 26.6122C77.9223 27.7012 77.1269 28.5393 76.0852 29.1264C75.0436 29.7088 73.7841 30 72.3068 30ZM69.7926 28.0824H72.1861C73.294 28.0824 74.215 27.8741 74.9489 27.4574C75.6828 27.036 76.232 26.4276 76.5966 25.6321C76.9612 24.8319 77.1435 23.8565 77.1435 22.706C77.1435 21.5649 76.9612 20.5966 76.5966 19.8011C76.2367 19.0057 75.6993 18.402 74.9844 17.9901C74.2694 17.5781 73.3816 17.3722 72.321 17.3722H69.7926V28.0824ZM85.0359 30.2415C84.3446 30.2415 83.7196 30.1136 83.1609 29.858C82.6022 29.5975 82.1594 29.2211 81.8327 28.7287C81.5108 28.2363 81.3498 27.6326 81.3498 26.9176C81.3498 26.3021 81.4682 25.7955 81.7049 25.3977C81.9416 25 82.2612 24.6851 82.6637 24.4531C83.0662 24.2211 83.516 24.0459 84.0131 23.9276C84.5103 23.8092 85.0169 23.7192 85.533 23.6577C86.1864 23.5819 86.7167 23.5204 87.1239 23.473C87.5311 23.4209 87.8271 23.3381 88.0117 23.2244C88.1964 23.1108 88.2887 22.9261 88.2887 22.6705V22.6207C88.2887 22.0005 88.1135 21.5199 87.7631 21.179C87.4175 20.8381 86.9014 20.6676 86.2148 20.6676C85.4999 20.6676 84.9364 20.8262 84.5245 21.1435C84.1173 21.456 83.8356 21.804 83.6793 22.1875L81.6836 21.733C81.9203 21.0701 82.266 20.535 82.7205 20.1278C83.1798 19.7159 83.7077 19.4176 84.3043 19.233C84.9009 19.0436 85.5283 18.9489 86.1864 18.9489C86.622 18.9489 87.0837 19.0009 87.5714 19.1051C88.0638 19.2045 88.5231 19.3892 88.9492 19.6591C89.3801 19.929 89.7328 20.3149 90.0075 20.8168C90.2821 21.3139 90.4194 21.9602 90.4194 22.7557V30H88.3455V28.5085H88.2603C88.123 28.7831 87.917 29.053 87.6424 29.3182C87.3678 29.5833 87.015 29.8035 86.5842 29.9787C86.1533 30.1539 85.6372 30.2415 85.0359 30.2415ZM85.4975 28.5369C86.0846 28.5369 86.5865 28.4209 87.0032 28.1889C87.4246 27.9569 87.7442 27.6539 87.962 27.2798C88.1845 26.901 88.2958 26.4962 88.2958 26.0653V24.6591C88.2201 24.7348 88.0733 24.8059 87.8555 24.8722C87.6424 24.9337 87.3986 24.9882 87.1239 25.0355C86.8493 25.0781 86.5818 25.1184 86.3214 25.1562C86.061 25.1894 85.8432 25.2178 85.668 25.2415C85.256 25.2936 84.8796 25.3812 84.5387 25.5043C84.2025 25.6274 83.9326 25.8049 83.729 26.0369C83.5302 26.2642 83.4308 26.5672 83.4308 26.946C83.4308 27.4716 83.6249 27.8693 84.0131 28.1392C84.4014 28.4044 84.8962 28.5369 85.4975 28.5369ZM95.3714 23.5227V30H93.2479V19.0909H95.2862V20.8665H95.4212C95.6721 20.2888 96.0651 19.8248 96.6001 19.4744C97.1399 19.1241 97.8194 18.9489 98.6385 18.9489C99.3819 18.9489 100.033 19.1051 100.592 19.4176C101.15 19.7254 101.584 20.1847 101.891 20.7955C102.199 21.4062 102.353 22.1615 102.353 23.0611V30H100.229V23.3168C100.229 22.526 100.023 21.9081 99.6115 21.4631C99.1996 21.0133 98.6338 20.7884 97.9141 20.7884C97.4216 20.7884 96.9837 20.8949 96.6001 21.108C96.2214 21.321 95.9207 21.6335 95.6982 22.0455C95.4804 22.4527 95.3714 22.9451 95.3714 23.5227ZM105.201 30V19.0909H107.325V30H105.201ZM106.273 17.4077C105.904 17.4077 105.587 17.2846 105.322 17.0384C105.061 16.7874 104.931 16.4891 104.931 16.1435C104.931 15.7931 105.061 15.4948 105.322 15.2486C105.587 14.9976 105.904 14.8722 106.273 14.8722C106.643 14.8722 106.958 14.9976 107.218 15.2486C107.483 15.4948 107.616 15.7931 107.616 16.1435C107.616 16.4891 107.483 16.7874 107.218 17.0384C106.958 17.2846 106.643 17.4077 106.273 17.4077ZM114.883 30.2202C113.808 30.2202 112.883 29.9905 112.106 29.5312C111.334 29.0672 110.738 28.4162 110.316 27.5781C109.9 26.7353 109.691 25.7481 109.691 24.6165C109.691 23.4991 109.9 22.5142 110.316 21.6619C110.738 20.8097 111.325 20.1444 112.078 19.6662C112.835 19.188 113.721 18.9489 114.734 18.9489C115.35 18.9489 115.946 19.0507 116.524 19.2543C117.101 19.4579 117.62 19.7775 118.079 20.2131C118.538 20.6487 118.901 21.2145 119.166 21.9105C119.431 22.6018 119.564 23.4422 119.564 24.4318V25.1847H110.892V23.5938H117.483C117.483 23.035 117.369 22.5402 117.142 22.1094C116.914 21.6738 116.595 21.3305 116.183 21.0795C115.776 20.8286 115.297 20.7031 114.748 20.7031C114.152 20.7031 113.631 20.8499 113.186 21.1435C112.745 21.4323 112.404 21.8111 112.163 22.2798C111.926 22.7438 111.808 23.2481 111.808 23.7926V25.0355C111.808 25.7647 111.936 26.3849 112.191 26.8963C112.452 27.4077 112.814 27.7983 113.278 28.0682C113.742 28.3333 114.284 28.4659 114.904 28.4659C115.307 28.4659 115.674 28.4091 116.005 28.2955C116.337 28.1771 116.623 28.0019 116.865 27.7699C117.106 27.5379 117.291 27.2514 117.419 26.9105L119.429 27.2727C119.268 27.8646 118.979 28.383 118.562 28.8281C118.15 29.2685 117.632 29.6117 117.007 29.858C116.386 30.0994 115.679 30.2202 114.883 30.2202ZM124.043 15.4545V30H121.92V15.4545H124.043ZM138.017 15.4545H140.205V25.767C140.205 26.6998 140.02 27.4976 139.651 28.1605C139.286 28.8234 138.772 29.33 138.109 29.6804C137.446 30.026 136.67 30.1989 135.78 30.1989C134.961 30.1989 134.224 30.0497 133.571 29.7514C132.922 29.4531 132.409 29.0199 132.03 28.4517C131.656 27.8788 131.469 27.1828 131.469 26.3636H133.649C133.649 26.7661 133.741 27.1141 133.926 27.4077C134.116 27.7012 134.374 27.9309 134.7 28.0966C135.032 28.2576 135.411 28.3381 135.837 28.3381C136.301 28.3381 136.694 28.241 137.016 28.0469C137.342 27.848 137.591 27.5568 137.761 27.1733C137.932 26.7898 138.017 26.321 138.017 25.767V15.4545ZM143.228 30V19.0909H145.352V30H143.228ZM144.301 17.4077C143.931 17.4077 143.614 17.2846 143.349 17.0384C143.089 16.7874 142.958 16.4891 142.958 16.1435C142.958 15.7931 143.089 15.4948 143.349 15.2486C143.614 14.9976 143.931 14.8722 144.301 14.8722C144.67 14.8722 144.985 14.9976 145.245 15.2486C145.511 15.4948 145.643 15.7931 145.643 16.1435C145.643 16.4891 145.511 16.7874 145.245 17.0384C144.985 17.2846 144.67 17.4077 144.301 17.4077ZM150.332 23.5227V30H148.209V19.0909H150.247V20.8665H150.382C150.633 20.2888 151.026 19.8248 151.561 19.4744C152.101 19.1241 152.78 18.9489 153.599 18.9489C154.343 18.9489 154.994 19.1051 155.553 19.4176C156.111 19.7254 156.545 20.1847 156.852 20.7955C157.16 21.4062 157.314 22.1615 157.314 23.0611V30H155.19V23.3168C155.19 22.526 154.984 21.9081 154.572 21.4631C154.161 21.0133 153.595 20.7884 152.875 20.7884C152.383 20.7884 151.945 20.8949 151.561 21.108C151.182 21.321 150.882 21.6335 150.659 22.0455C150.441 22.4527 150.332 22.9451 150.332 23.5227ZM160.162 30V19.0909H162.2V20.8665H162.335C162.563 20.2652 162.934 19.7964 163.45 19.4602C163.966 19.1193 164.584 18.9489 165.304 18.9489C166.033 18.9489 166.644 19.1193 167.136 19.4602C167.634 19.8011 168 20.2699 168.237 20.8665H168.351C168.611 20.2841 169.026 19.8201 169.594 19.4744C170.162 19.1241 170.839 18.9489 171.625 18.9489C172.615 18.9489 173.422 19.259 174.047 19.8793C174.677 20.4995 174.991 21.4347 174.991 22.6847V30H172.868V22.8835C172.868 22.1449 172.667 21.6098 172.264 21.2784C171.862 20.947 171.381 20.7812 170.822 20.7812C170.131 20.7812 169.594 20.9943 169.21 21.4205C168.827 21.8419 168.635 22.384 168.635 23.0469V30H166.518V22.7486C166.518 22.1567 166.334 21.6809 165.964 21.321C165.595 20.9612 165.115 20.7812 164.523 20.7812C164.12 20.7812 163.749 20.8878 163.408 21.1009C163.071 21.3092 162.799 21.6004 162.591 21.9744C162.387 22.3485 162.286 22.7817 162.286 23.2741V30H160.162ZM177.838 30V19.0909H179.961V30H177.838ZM178.91 17.4077C178.541 17.4077 178.224 17.2846 177.958 17.0384C177.698 16.7874 177.568 16.4891 177.568 16.1435C177.568 15.7931 177.698 15.4948 177.958 15.2486C178.224 14.9976 178.541 14.8722 178.91 14.8722C179.279 14.8722 179.594 14.9976 179.855 15.2486C180.12 15.4948 180.252 15.7931 180.252 16.1435C180.252 16.4891 180.12 16.7874 179.855 17.0384C179.594 17.2846 179.279 17.4077 178.91 17.4077ZM200.917 22.7273C200.917 24.2803 200.632 25.6155 200.064 26.733C199.496 27.8456 198.717 28.7027 197.728 29.304C196.743 29.9006 195.623 30.1989 194.368 30.1989C193.109 30.1989 191.984 29.9006 190.995 29.304C190.01 28.7027 189.233 27.8433 188.665 26.7259C188.097 25.6084 187.813 24.2756 187.813 22.7273C187.813 21.1742 188.097 19.8414 188.665 18.7287C189.233 17.6113 190.01 16.7543 190.995 16.1577C191.984 15.5563 193.109 15.2557 194.368 15.2557C195.623 15.2557 196.743 15.5563 197.728 16.1577C198.717 16.7543 199.496 17.6113 200.064 18.7287C200.632 19.8414 200.917 21.1742 200.917 22.7273ZM198.743 22.7273C198.743 21.5436 198.551 20.5469 198.168 19.7372C197.789 18.9228 197.268 18.3073 196.605 17.8906C195.947 17.4692 195.202 17.2585 194.368 17.2585C193.53 17.2585 192.782 17.4692 192.124 17.8906C191.466 18.3073 190.945 18.9228 190.561 19.7372C190.183 20.5469 189.993 21.5436 189.993 22.7273C189.993 23.911 190.183 24.91 190.561 25.7244C190.945 26.5341 191.466 27.1496 192.124 27.571C192.782 27.9877 193.53 28.196 194.368 28.196C195.202 28.196 195.947 27.9877 196.605 27.571C197.268 27.1496 197.789 26.5341 198.168 25.7244C198.551 24.91 198.743 23.911 198.743 22.7273ZM203.963 30.1349C203.575 30.1349 203.241 29.9976 202.962 29.723C202.683 29.4437 202.543 29.1075 202.543 28.7145C202.543 28.3262 202.683 27.9948 202.962 27.7202C203.241 27.4408 203.575 27.3011 203.963 27.3011C204.352 27.3011 204.685 27.4408 204.965 27.7202C205.244 27.9948 205.384 28.3262 205.384 28.7145C205.384 28.9749 205.318 29.214 205.185 29.4318C205.057 29.6449 204.887 29.8153 204.674 29.9432C204.461 30.071 204.224 30.1349 203.963 30.1349Z" fill="#F5F5F5"/>
<defs>
<filter id="filter0_ii_602_2093" x="0" y="-4.50612" width="47.5959" height="52.102" filterUnits="userSpaceOnUse" color-interpolation-filters="sRGB">
<feFlood flood-opacity="0" result="BackgroundImageFix"/>
<feBlend mode="normal" in="SourceGraphic" in2="BackgroundImageFix" result="shape"/>
<feColorMatrix in="SourceAlpha" type="matrix" values="0 0 0 0 0 0 0 0 0 0 0 0 0 0 0 0 0 0 127 0" result="hardAlpha"/>
<feOffset dy="-6.10204"/>
<feGaussianBlur stdDeviation="2.25306"/>
<feComposite in2="hardAlpha" operator="arithmetic" k2="-1" k3="1"/>
<feColorMatrix type="matrix" values="0 0 0 0 0.196078 0 0 0 0 0.196078 0 0 0 0 0.196078 0 0 0 0.25 0"/>
<feBlend mode="normal" in2="shape" result="effect1_innerShadow_602_2093"/>
<feColorMatrix in="SourceAlpha" type="matrix" values="0 0 0 0 0 0 0 0 0 0 0 0 0 0 0 0 0 0 127 0" result="hardAlpha"/>
<feOffset dx="1.59592" dy="1.59592"/>
<feGaussianBlur stdDeviation="1.17347"/>
<feComposite in2="hardAlpha" operator="arithmetic" k2="-1" k3="1"/>
<feColorMatrix type="matrix" values="0 0 0 0 0.960784 0 0 0 0 0.960784 0 0 0 0 0.960784 0 0 0 1 0"/>
<feBlend mode="normal" in2="effect1_innerShadow_602_2093" result="effect2_innerShadow_602_2093"/>
</filter>
</defs>
</svg>
