<svg width="237" height="51" viewBox="0 0 237 51" fill="none" xmlns="http://www.w3.org/2000/svg">
<g filter="url(#filter0_d_599_944)">
<g filter="url(#filter1_ii_599_944)">
<rect x="3" width="46" height="46" rx="23" fill="#F8F8F8"/>
</g>
<path d="M13.1985 29.5146V29.558H13.0512C13.0512 29.558 13.0512 29.532 13.0512 29.519L13.1985 29.5146ZM42.3847 23.09C42.3733 27.2218 40.8275 31.2021 38.0472 34.2585C35.2669 37.315 31.4503 39.2297 27.3381 39.6312C23.2258 40.0327 19.111 38.8923 15.792 36.4313C12.473 33.9703 10.1866 30.3641 9.37627 26.3125C8.56595 22.2609 9.28954 18.0527 11.4066 14.5045C13.5238 10.9563 16.8834 8.32099 20.8338 7.10993C24.7842 5.89888 29.0436 6.19842 32.7856 7.95043C36.5276 9.70245 39.4853 12.782 41.085 16.5916C41.9493 18.6488 42.3913 20.8586 42.3847 23.09ZM39.9976 23.09C39.9994 20.915 39.5063 18.7681 38.5555 16.8119C37.6048 14.8558 36.2214 13.1416 34.5102 11.7991C32.7989 10.4567 30.8046 9.52132 28.6783 9.06373C26.552 8.60613 24.3495 8.63837 22.2375 9.15799C20.1255 9.67761 18.1594 10.671 16.4882 12.0629C14.8169 13.4548 13.4843 15.2088 12.5912 17.1919C11.6981 19.1751 11.268 21.3355 11.3335 23.5095C11.3989 25.6835 11.9582 27.8141 12.9689 29.7399C13.2033 29.6815 13.4323 29.6033 13.6534 29.506C13.961 29.363 14.2469 29.1767 14.5415 29.0078L14.5978 28.9558L14.5112 28.8821C14.4765 28.8475 14.4895 28.8258 14.5328 28.8128C14.5761 28.7998 14.5328 28.8128 14.5328 28.8128C14.6931 28.8821 14.8881 28.8475 15.018 28.9948L15.044 29.0251L15.2866 29.1681C15.3473 29.2027 15.4036 29.2374 15.4123 29.1074L15.9711 29.3457C16.0094 29.2844 16.0614 29.2329 16.1231 29.1953C16.1847 29.1577 16.2544 29.135 16.3264 29.1291C16.462 29.1017 16.5942 29.0596 16.7206 29.0034L17.0672 28.7608C16.8824 28.8665 16.6898 28.9577 16.491 29.0338C16.4835 29.037 16.4753 29.0386 16.4672 29.0386C16.459 29.0386 16.4509 29.037 16.4433 29.0338L16.8202 28.8561C17.1678 28.6915 17.4867 28.4721 17.7647 28.2063L18.3625 27.4395C18.4518 27.2535 18.5173 27.057 18.5575 26.8547C18.6399 26.3511 18.6399 25.8376 18.5575 25.334C18.5575 25.2647 18.5575 25.1954 18.5575 25.1304C18.5575 25.0655 18.5575 25.1304 18.5575 25.1044L18.4968 25.2431L18.4751 25.2127C18.4535 25.0741 18.4405 24.9398 18.4145 24.8055C18.3885 24.6712 18.3582 24.6062 18.3322 24.5066C18.2845 24.3376 18.2455 24.1687 18.1892 24.0041C18.1329 23.8394 18.0463 23.6228 17.9683 23.4365C17.8903 23.2503 17.8036 23.0596 17.7257 22.8647C17.6953 22.7867 17.6867 22.6957 17.6607 22.6134C17.6583 22.5663 17.6417 22.521 17.613 22.4834C17.4267 22.2972 17.4354 22.0026 17.2231 21.825C17.1365 21.7556 17.1148 21.617 17.0585 21.5087L17.0152 21.4264C17.0152 21.4004 16.9719 21.3657 16.9762 21.3397C16.9762 21.1751 16.8852 21.0711 16.8116 20.9455C16.7746 20.8656 16.7484 20.7811 16.7336 20.6942C16.7295 20.6459 16.7208 20.598 16.7076 20.5513C16.6469 20.404 16.569 20.2697 16.5213 20.1181C16.4731 19.9619 16.4354 19.8027 16.4087 19.6415C16.3524 19.3253 16.322 19.009 16.244 18.7014C16.1964 18.5065 16.2224 18.3115 16.1834 18.1209C16.1654 18.0355 16.1582 17.9482 16.1617 17.861C16.1617 17.796 16.2007 17.731 16.2094 17.666C16.2622 17.3905 16.2869 17.1104 16.283 16.8299C16.2547 16.5452 16.2918 16.2577 16.3913 15.9894C16.4111 15.9087 16.4199 15.8256 16.4173 15.7425C16.4173 15.7165 16.4173 15.6819 16.4173 15.6732C16.5386 15.5909 16.5386 15.4566 16.5646 15.3353C16.6296 15.0234 16.6816 14.7114 16.7466 14.3995C16.7734 14.3127 16.8112 14.2297 16.8592 14.1526C16.9 14.0835 16.9448 14.017 16.9935 13.9533L17.3184 13.5201C17.4523 13.3509 17.5767 13.1745 17.691 12.9916C17.8594 12.7016 18.1055 12.4645 18.4015 12.3071C18.7853 12.0919 19.1518 11.8471 19.4975 11.5749C20.1053 11.0897 20.8245 10.7636 21.59 10.6262C21.9236 10.5655 22.2442 10.4485 22.5691 10.3619L22.894 10.2752C22.9125 10.271 22.9318 10.271 22.9503 10.2752C23.1109 10.3163 23.2793 10.3163 23.4399 10.2752C23.7041 10.2406 23.9727 10.2059 24.237 10.1799C24.4189 10.1799 24.6009 10.1539 24.7829 10.1453C24.8478 10.1453 24.9128 10.1756 24.9735 10.1756C25.1251 10.1756 25.2724 10.1756 25.4067 10.1756C25.8805 10.1258 26.3582 10.1258 26.832 10.1756C27.1093 10.2103 27.3865 10.2709 27.6594 10.3186H27.6854C27.8536 10.3298 28.0168 10.3802 28.162 10.4659C28.3483 10.5352 28.5302 10.6262 28.7208 10.6955C29.0474 10.813 29.3331 11.022 29.544 11.2977C29.7775 11.6057 29.9657 11.9456 30.1028 12.3071C30.1161 12.3415 30.132 12.3748 30.1505 12.4067C30.3229 12.6756 30.4571 12.9672 30.549 13.2731C30.6104 13.4465 30.6568 13.6248 30.6877 13.806C30.7241 13.983 30.8012 14.1491 30.9129 14.2912C31.0559 14.4732 31.1945 14.6638 31.3462 14.8501C31.3978 14.9211 31.4456 14.9948 31.4891 15.071C31.5281 15.1403 31.5541 15.2226 31.5974 15.292C31.6467 15.3783 31.7063 15.4584 31.7751 15.5302C32.0525 15.821 32.2248 16.1961 32.2646 16.596C32.2744 16.6562 32.2889 16.7156 32.3079 16.7736C32.347 16.9271 32.347 17.0879 32.3079 17.2415C32.2546 17.4789 32.2443 17.7239 32.2776 17.9649C32.2862 18.0861 32.2862 18.2077 32.2776 18.3288C32.2768 18.362 32.2844 18.3948 32.2995 18.4243C32.3146 18.4538 32.3369 18.4791 32.3642 18.4978C32.5289 18.6148 32.6978 18.7361 32.8581 18.8617C32.9116 18.9094 32.9608 18.9616 33.0054 19.0177C33.1397 19.165 33.287 19.3079 33.4126 19.4509C33.6303 19.7088 33.739 20.0413 33.7159 20.378C33.7179 20.3924 33.7179 20.4069 33.7159 20.4213C33.6564 20.5936 33.6186 20.7726 33.6033 20.9542C33.5962 21.059 33.5675 21.1612 33.519 21.2543C33.4706 21.3475 33.4034 21.4297 33.3217 21.4957C33.287 21.5217 33.2567 21.5564 33.2177 21.591L33.4646 21.7556C33.5178 21.7851 33.5641 21.8253 33.6007 21.8739C33.6373 21.9224 33.6632 21.978 33.6769 22.0372C33.7014 22.1482 33.7392 22.2559 33.7895 22.3578C33.8459 22.4661 33.7895 22.5831 33.8372 22.6784C33.8848 22.7737 33.8589 22.8604 33.8632 22.9557C33.8632 22.9297 33.8632 22.8993 33.8632 22.8777C33.8285 23.0336 33.7982 23.1896 33.7635 23.3456L33.7939 23.3846C34.0321 23.6705 33.6163 24.4763 33.6163 24.4763C33.5469 24.5889 33.4733 24.7059 33.4126 24.8228C33.3482 24.9429 33.2959 25.0692 33.2567 25.1998C33.2134 25.334 33.3 25.4337 33.378 25.5247C33.4615 25.6335 33.572 25.7186 33.6986 25.7716C33.7419 25.7716 33.7635 25.8496 33.7982 25.8886L33.9455 26.0705C33.9869 26.1186 34.0232 26.1709 34.0538 26.2265C34.1361 26.3868 34.1534 26.5774 34.3051 26.7117C34.3571 26.755 34.3614 26.8633 34.3614 26.9456C34.3517 27.0152 34.3343 27.0835 34.3094 27.1493C34.2531 27.3269 34.2054 27.5045 34.1448 27.6821C34.1145 27.7818 34.0711 27.8814 34.0321 27.9767C33.9932 28.072 33.9542 28.1153 33.9282 28.189C33.9115 28.2607 33.8722 28.3252 33.816 28.3728C33.7598 28.4204 33.6898 28.4486 33.6163 28.4532L33.4603 28.4792C33.4139 28.481 33.3687 28.4941 33.3286 28.5176C33.2886 28.541 33.2549 28.574 33.2307 28.6135C33.1533 28.7361 33.0409 28.8326 32.9081 28.8905C32.7752 28.9485 32.628 28.9652 32.4855 28.9385C32.1727 28.9006 31.8648 28.8295 31.5671 28.7262C31.4493 28.7073 31.3419 28.6475 31.2639 28.5572C31.2423 28.5392 31.2172 28.5259 31.1902 28.5182C30.9615 28.4019 30.7489 28.2562 30.5577 28.085C30.4897 28.0386 30.4131 28.0062 30.3324 27.9897C30.2934 27.9897 30.2458 27.9897 30.2068 27.9637C29.9908 27.9065 29.7672 27.8832 29.544 27.8944C29.3063 27.9165 29.0817 28.0136 28.9028 28.1717C28.5585 28.4847 28.2737 28.8575 28.0623 29.272C27.9064 29.5493 27.7808 29.8396 27.6291 30.1385C27.5704 30.284 27.5495 30.442 27.5685 30.5977C27.5583 30.915 27.5133 31.2303 27.4342 31.5378C27.3822 31.7717 27.3389 32.01 27.2912 32.2483C27.282 32.2822 27.2852 32.3184 27.3003 32.3502C27.3154 32.3819 27.3414 32.4073 27.3735 32.4216C27.6811 32.6165 27.9887 32.8201 28.3006 33.0064C28.4479 33.0974 28.6125 33.1494 28.7642 33.2274C29.1995 33.467 29.5931 33.7757 29.9295 34.1415C30.3466 34.5903 30.8098 34.994 31.3115 35.3458C31.4241 35.4238 31.5584 35.4671 31.6754 35.5408C31.7924 35.6144 31.983 35.766 32.139 35.8657C34.5002 34.6688 36.4842 32.8417 37.8712 30.5869C39.2583 28.332 39.9942 25.7373 39.9976 23.09Z" fill="#323232"/>
</g>
<path d="M92.3068 30H87.598V15.4545H92.456C93.8812 15.4545 95.1051 15.7457 96.1278 16.3281C97.1506 16.9058 97.9342 17.7367 98.4787 18.821C99.0279 19.9006 99.3026 21.1955 99.3026 22.706C99.3026 24.2211 99.0256 25.5232 98.4716 26.6122C97.9223 27.7012 97.1269 28.5393 96.0852 29.1264C95.0436 29.7088 93.7841 30 92.3068 30ZM89.7926 28.0824H92.1861C93.294 28.0824 94.215 27.8741 94.9489 27.4574C95.6828 27.036 96.232 26.4276 96.5966 25.6321C96.9612 24.8319 97.1435 23.8565 97.1435 22.706C97.1435 21.5649 96.9612 20.5966 96.5966 19.8011C96.2367 19.0057 95.6993 18.402 94.9844 17.9901C94.2694 17.5781 93.3816 17.3722 92.321 17.3722H89.7926V28.0824ZM105.036 30.2415C104.345 30.2415 103.72 30.1136 103.161 29.858C102.602 29.5975 102.159 29.2211 101.833 28.7287C101.511 28.2363 101.35 27.6326 101.35 26.9176C101.35 26.3021 101.468 25.7955 101.705 25.3977C101.942 25 102.261 24.6851 102.664 24.4531C103.066 24.2211 103.516 24.0459 104.013 23.9276C104.51 23.8092 105.017 23.7192 105.533 23.6577C106.186 23.5819 106.717 23.5204 107.124 23.473C107.531 23.4209 107.827 23.3381 108.012 23.2244C108.196 23.1108 108.289 22.9261 108.289 22.6705V22.6207C108.289 22.0005 108.114 21.5199 107.763 21.179C107.417 20.8381 106.901 20.6676 106.215 20.6676C105.5 20.6676 104.936 20.8262 104.525 21.1435C104.117 21.456 103.836 21.804 103.679 22.1875L101.684 21.733C101.92 21.0701 102.266 20.535 102.721 20.1278C103.18 19.7159 103.708 19.4176 104.304 19.233C104.901 19.0436 105.528 18.9489 106.186 18.9489C106.622 18.9489 107.084 19.0009 107.571 19.1051C108.064 19.2045 108.523 19.3892 108.949 19.6591C109.38 19.929 109.733 20.3149 110.007 20.8168C110.282 21.3139 110.419 21.9602 110.419 22.7557V30H108.346V28.5085H108.26C108.123 28.7831 107.917 29.053 107.642 29.3182C107.368 29.5833 107.015 29.8035 106.584 29.9787C106.153 30.1539 105.637 30.2415 105.036 30.2415ZM105.498 28.5369C106.085 28.5369 106.587 28.4209 107.003 28.1889C107.425 27.9569 107.744 27.6539 107.962 27.2798C108.185 26.901 108.296 26.4962 108.296 26.0653V24.6591C108.22 24.7348 108.073 24.8059 107.855 24.8722C107.642 24.9337 107.399 24.9882 107.124 25.0355C106.849 25.0781 106.582 25.1184 106.321 25.1562C106.061 25.1894 105.843 25.2178 105.668 25.2415C105.256 25.2936 104.88 25.3812 104.539 25.5043C104.203 25.6274 103.933 25.8049 103.729 26.0369C103.53 26.2642 103.431 26.5672 103.431 26.946C103.431 27.4716 103.625 27.8693 104.013 28.1392C104.401 28.4044 104.896 28.5369 105.498 28.5369ZM115.371 23.5227V30H113.248V19.0909H115.286V20.8665H115.421C115.672 20.2888 116.065 19.8248 116.6 19.4744C117.14 19.1241 117.819 18.9489 118.638 18.9489C119.382 18.9489 120.033 19.1051 120.592 19.4176C121.15 19.7254 121.584 20.1847 121.891 20.7955C122.199 21.4062 122.353 22.1615 122.353 23.0611V30H120.229V23.3168C120.229 22.526 120.023 21.9081 119.612 21.4631C119.2 21.0133 118.634 20.7884 117.914 20.7884C117.422 20.7884 116.984 20.8949 116.6 21.108C116.221 21.321 115.921 21.6335 115.698 22.0455C115.48 22.4527 115.371 22.9451 115.371 23.5227ZM125.201 30V19.0909H127.325V30H125.201ZM126.273 17.4077C125.904 17.4077 125.587 17.2846 125.322 17.0384C125.061 16.7874 124.931 16.4891 124.931 16.1435C124.931 15.7931 125.061 15.4948 125.322 15.2486C125.587 14.9976 125.904 14.8722 126.273 14.8722C126.643 14.8722 126.958 14.9976 127.218 15.2486C127.483 15.4948 127.616 15.7931 127.616 16.1435C127.616 16.4891 127.483 16.7874 127.218 17.0384C126.958 17.2846 126.643 17.4077 126.273 17.4077ZM134.883 30.2202C133.808 30.2202 132.883 29.9905 132.106 29.5312C131.334 29.0672 130.738 28.4162 130.316 27.5781C129.9 26.7353 129.691 25.7481 129.691 24.6165C129.691 23.4991 129.9 22.5142 130.316 21.6619C130.738 20.8097 131.325 20.1444 132.078 19.6662C132.835 19.188 133.721 18.9489 134.734 18.9489C135.35 18.9489 135.946 19.0507 136.524 19.2543C137.101 19.4579 137.62 19.7775 138.079 20.2131C138.538 20.6487 138.901 21.2145 139.166 21.9105C139.431 22.6018 139.564 23.4422 139.564 24.4318V25.1847H130.892V23.5938H137.483C137.483 23.035 137.369 22.5402 137.142 22.1094C136.914 21.6738 136.595 21.3305 136.183 21.0795C135.776 20.8286 135.297 20.7031 134.748 20.7031C134.152 20.7031 133.631 20.8499 133.186 21.1435C132.745 21.4323 132.404 21.8111 132.163 22.2798C131.926 22.7438 131.808 23.2481 131.808 23.7926V25.0355C131.808 25.7647 131.936 26.3849 132.191 26.8963C132.452 27.4077 132.814 27.7983 133.278 28.0682C133.742 28.3333 134.284 28.4659 134.904 28.4659C135.307 28.4659 135.674 28.4091 136.005 28.2955C136.337 28.1771 136.623 28.0019 136.865 27.7699C137.106 27.5379 137.291 27.2514 137.419 26.9105L139.429 27.2727C139.268 27.8646 138.979 28.383 138.562 28.8281C138.15 29.2685 137.632 29.6117 137.007 29.858C136.386 30.0994 135.679 30.2202 134.883 30.2202ZM144.043 15.4545V30H141.92V15.4545H144.043ZM158.017 15.4545H160.205V25.767C160.205 26.6998 160.02 27.4976 159.651 28.1605C159.286 28.8234 158.772 29.33 158.109 29.6804C157.446 30.026 156.67 30.1989 155.78 30.1989C154.961 30.1989 154.224 30.0497 153.571 29.7514C152.922 29.4531 152.409 29.0199 152.03 28.4517C151.656 27.8788 151.469 27.1828 151.469 26.3636H153.649C153.649 26.7661 153.741 27.1141 153.926 27.4077C154.116 27.7012 154.374 27.9309 154.7 28.0966C155.032 28.2576 155.411 28.3381 155.837 28.3381C156.301 28.3381 156.694 28.241 157.016 28.0469C157.342 27.848 157.591 27.5568 157.761 27.1733C157.932 26.7898 158.017 26.321 158.017 25.767V15.4545ZM163.228 30V19.0909H165.352V30H163.228ZM164.301 17.4077C163.931 17.4077 163.614 17.2846 163.349 17.0384C163.089 16.7874 162.958 16.4891 162.958 16.1435C162.958 15.7931 163.089 15.4948 163.349 15.2486C163.614 14.9976 163.931 14.8722 164.301 14.8722C164.67 14.8722 164.985 14.9976 165.245 15.2486C165.511 15.4948 165.643 15.7931 165.643 16.1435C165.643 16.4891 165.511 16.7874 165.245 17.0384C164.985 17.2846 164.67 17.4077 164.301 17.4077ZM170.332 23.5227V30H168.209V19.0909H170.247V20.8665H170.382C170.633 20.2888 171.026 19.8248 171.561 19.4744C172.101 19.1241 172.78 18.9489 173.599 18.9489C174.343 18.9489 174.994 19.1051 175.553 19.4176C176.111 19.7254 176.545 20.1847 176.852 20.7955C177.16 21.4062 177.314 22.1615 177.314 23.0611V30H175.19V23.3168C175.19 22.526 174.984 21.9081 174.572 21.4631C174.161 21.0133 173.595 20.7884 172.875 20.7884C172.383 20.7884 171.945 20.8949 171.561 21.108C171.182 21.321 170.882 21.6335 170.659 22.0455C170.441 22.4527 170.332 22.9451 170.332 23.5227ZM180.162 30V19.0909H182.2V20.8665H182.335C182.563 20.2652 182.934 19.7964 183.45 19.4602C183.966 19.1193 184.584 18.9489 185.304 18.9489C186.033 18.9489 186.644 19.1193 187.136 19.4602C187.634 19.8011 188 20.2699 188.237 20.8665H188.351C188.611 20.2841 189.026 19.8201 189.594 19.4744C190.162 19.1241 190.839 18.9489 191.625 18.9489C192.615 18.9489 193.422 19.259 194.047 19.8793C194.677 20.4995 194.991 21.4347 194.991 22.6847V30H192.868V22.8835C192.868 22.1449 192.667 21.6098 192.264 21.2784C191.862 20.947 191.381 20.7812 190.822 20.7812C190.131 20.7812 189.594 20.9943 189.21 21.4205C188.827 21.8419 188.635 22.384 188.635 23.0469V30H186.518V22.7486C186.518 22.1567 186.334 21.6809 185.964 21.321C185.595 20.9612 185.115 20.7812 184.523 20.7812C184.12 20.7812 183.749 20.8878 183.408 21.1009C183.071 21.3092 182.799 21.6004 182.591 21.9744C182.387 22.3485 182.286 22.7817 182.286 23.2741V30H180.162ZM197.838 30V19.0909H199.961V30H197.838ZM198.91 17.4077C198.541 17.4077 198.224 17.2846 197.958 17.0384C197.698 16.7874 197.568 16.4891 197.568 16.1435C197.568 15.7931 197.698 15.4948 197.958 15.2486C198.224 14.9976 198.541 14.8722 198.91 14.8722C199.279 14.8722 199.594 14.9976 199.855 15.2486C200.12 15.4948 200.252 15.7931 200.252 16.1435C200.252 16.4891 200.12 16.7874 199.855 17.0384C199.594 17.2846 199.279 17.4077 198.91 17.4077ZM220.917 22.7273C220.917 24.2803 220.632 25.6155 220.064 26.733C219.496 27.8456 218.717 28.7027 217.728 29.304C216.743 29.9006 215.623 30.1989 214.368 30.1989C213.109 30.1989 211.984 29.9006 210.995 29.304C210.01 28.7027 209.233 27.8433 208.665 26.7259C208.097 25.6084 207.813 24.2756 207.813 22.7273C207.813 21.1742 208.097 19.8414 208.665 18.7287C209.233 17.6113 210.01 16.7543 210.995 16.1577C211.984 15.5563 213.109 15.2557 214.368 15.2557C215.623 15.2557 216.743 15.5563 217.728 16.1577C218.717 16.7543 219.496 17.6113 220.064 18.7287C220.632 19.8414 220.917 21.1742 220.917 22.7273ZM218.743 22.7273C218.743 21.5436 218.551 20.5469 218.168 19.7372C217.789 18.9228 217.268 18.3073 216.605 17.8906C215.947 17.4692 215.202 17.2585 214.368 17.2585C213.53 17.2585 212.782 17.4692 212.124 17.8906C211.466 18.3073 210.945 18.9228 210.561 19.7372C210.183 20.5469 209.993 21.5436 209.993 22.7273C209.993 23.911 210.183 24.91 210.561 25.7244C210.945 26.5341 211.466 27.1496 212.124 27.571C212.782 27.9877 213.53 28.196 214.368 28.196C215.202 28.196 215.947 27.9877 216.605 27.571C217.268 27.1496 217.789 26.5341 218.168 25.7244C218.551 24.91 218.743 23.911 218.743 22.7273ZM223.963 30.1349C223.575 30.1349 223.241 29.9976 222.962 29.723C222.683 29.4437 222.543 29.1075 222.543 28.7145C222.543 28.3262 222.683 27.9948 222.962 27.7202C223.241 27.4408 223.575 27.3011 223.963 27.3011C224.352 27.3011 224.685 27.4408 224.965 27.7202C225.244 27.9948 225.384 28.3262 225.384 28.7145C225.384 28.9749 225.318 29.214 225.185 29.4318C225.057 29.6449 224.887 29.8153 224.674 29.9432C224.461 30.071 224.224 30.1349 223.963 30.1349Z" fill="#F5F5F5"/>
<defs>
<filter id="filter0_d_599_944" x="0.578947" y="0" width="50.8421" height="50.8421" filterUnits="userSpaceOnUse" color-interpolation-filters="sRGB">
<feFlood flood-opacity="0" result="BackgroundImageFix"/>
<feColorMatrix in="SourceAlpha" type="matrix" values="0 0 0 0 0 0 0 0 0 0 0 0 0 0 0 0 0 0 127 0" result="hardAlpha"/>
<feOffset dy="2.42105"/>
<feGaussianBlur stdDeviation="1.21053"/>
<feComposite in2="hardAlpha" operator="out"/>
<feColorMatrix type="matrix" values="0 0 0 0 0 0 0 0 0 0 0 0 0 0 0 0 0 0 0.25 0"/>
<feBlend mode="normal" in2="BackgroundImageFix" result="effect1_dropShadow_599_944"/>
<feBlend mode="normal" in="SourceGraphic" in2="effect1_dropShadow_599_944" result="shape"/>
</filter>
<filter id="filter1_ii_599_944" x="3" y="-4.50612" width="47.5959" height="52.102" filterUnits="userSpaceOnUse" color-interpolation-filters="sRGB">
<feFlood flood-opacity="0" result="BackgroundImageFix"/>
<feBlend mode="normal" in="SourceGraphic" in2="BackgroundImageFix" result="shape"/>
<feColorMatrix in="SourceAlpha" type="matrix" values="0 0 0 0 0 0 0 0 0 0 0 0 0 0 0 0 0 0 127 0" result="hardAlpha"/>
<feOffset dy="-6.10204"/>
<feGaussianBlur stdDeviation="2.25306"/>
<feComposite in2="hardAlpha" operator="arithmetic" k2="-1" k3="1"/>
<feColorMatrix type="matrix" values="0 0 0 0 0.196078 0 0 0 0 0.196078 0 0 0 0 0.196078 0 0 0 0.25 0"/>
<feBlend mode="normal" in2="shape" result="effect1_innerShadow_599_944"/>
<feColorMatrix in="SourceAlpha" type="matrix" values="0 0 0 0 0 0 0 0 0 0 0 0 0 0 0 0 0 0 127 0" result="hardAlpha"/>
<feOffset dx="1.59592" dy="1.59592"/>
<feGaussianBlur stdDeviation="1.17347"/>
<feComposite in2="hardAlpha" operator="arithmetic" k2="-1" k3="1"/>
<feColorMatrix type="matrix" values="0 0 0 0 0.960784 0 0 0 0 0.960784 0 0 0 0 0.960784 0 0 0 1 0"/>
<feBlend mode="normal" in2="effect1_innerShadow_599_944" result="effect2_innerShadow_599_944"/>
</filter>
</defs>
</svg>
