<svg width="52" height="51" viewBox="0 0 52 51" fill="none" xmlns="http://www.w3.org/2000/svg">
<g filter="url(#filter0_d_599_945)">
<g filter="url(#filter1_ii_599_945)">
<rect x="3" width="46" height="46" rx="23" fill="#F8F8F8"/>
</g>
<path d="M13.1985 29.5146V29.558H13.0512C13.0512 29.558 13.0512 29.532 13.0512 29.519L13.1985 29.5146ZM42.3847 23.09C42.3733 27.2218 40.8275 31.2021 38.0472 34.2585C35.2669 37.315 31.4503 39.2297 27.3381 39.6312C23.2258 40.0327 19.111 38.8923 15.792 36.4313C12.473 33.9703 10.1866 30.3641 9.37627 26.3125C8.56595 22.2609 9.28954 18.0527 11.4066 14.5045C13.5238 10.9563 16.8834 8.32099 20.8338 7.10993C24.7842 5.89888 29.0436 6.19842 32.7856 7.95043C36.5276 9.70245 39.4853 12.782 41.085 16.5916C41.9493 18.6488 42.3913 20.8586 42.3847 23.09V23.09ZM39.9976 23.09C39.9994 20.915 39.5063 18.7681 38.5555 16.8119C37.6048 14.8558 36.2214 13.1416 34.5102 11.7991C32.7989 10.4567 30.8046 9.52132 28.6783 9.06373C26.552 8.60613 24.3495 8.63837 22.2375 9.15799C20.1255 9.67761 18.1594 10.671 16.4882 12.0629C14.8169 13.4548 13.4843 15.2088 12.5912 17.1919C11.6981 19.1751 11.268 21.3355 11.3335 23.5095C11.3989 25.6835 11.9582 27.8141 12.9689 29.7399C13.2033 29.6815 13.4323 29.6033 13.6534 29.506C13.961 29.363 14.2469 29.1767 14.5415 29.0078L14.5978 28.9558L14.5112 28.8821C14.4765 28.8475 14.4895 28.8258 14.5328 28.8128C14.5761 28.7998 14.5328 28.8128 14.5328 28.8128C14.6931 28.8821 14.8881 28.8475 15.018 28.9948L15.044 29.0251L15.2866 29.1681C15.3473 29.2027 15.4036 29.2374 15.4123 29.1074L15.9711 29.3457C16.0094 29.2844 16.0614 29.2329 16.1231 29.1953C16.1847 29.1577 16.2544 29.135 16.3264 29.1291C16.462 29.1017 16.5942 29.0596 16.7206 29.0034V29.0034L17.0672 28.7608C16.8824 28.8665 16.6898 28.9577 16.491 29.0338C16.4835 29.037 16.4753 29.0386 16.4672 29.0386C16.459 29.0386 16.4509 29.037 16.4433 29.0338L16.8202 28.8561C17.1678 28.6915 17.4867 28.4721 17.7647 28.2063L18.3625 27.4395C18.4518 27.2535 18.5173 27.057 18.5575 26.8547C18.6399 26.3511 18.6399 25.8376 18.5575 25.334C18.5575 25.2647 18.5575 25.1954 18.5575 25.1304C18.5575 25.0655 18.5575 25.1304 18.5575 25.1044L18.4968 25.2431L18.4751 25.2127C18.4535 25.0741 18.4405 24.9398 18.4145 24.8055C18.3885 24.6712 18.3582 24.6062 18.3322 24.5066C18.2845 24.3376 18.2455 24.1687 18.1892 24.0041C18.1329 23.8394 18.0463 23.6228 17.9683 23.4365C17.8903 23.2503 17.8036 23.0596 17.7257 22.8647C17.6953 22.7867 17.6867 22.6957 17.6607 22.6134C17.6583 22.5663 17.6417 22.521 17.613 22.4834C17.4267 22.2972 17.4354 22.0026 17.2231 21.8249C17.1365 21.7556 17.1148 21.617 17.0585 21.5087L17.0152 21.4264C17.0152 21.4004 16.9719 21.3657 16.9762 21.3397C16.9762 21.1751 16.8852 21.0711 16.8116 20.9455C16.7746 20.8656 16.7484 20.7811 16.7336 20.6942C16.7295 20.6459 16.7208 20.598 16.7076 20.5513C16.6469 20.404 16.569 20.2697 16.5213 20.1181C16.4731 19.9619 16.4354 19.8027 16.4087 19.6415C16.3524 19.3253 16.322 19.009 16.244 18.7014C16.1964 18.5065 16.2224 18.3115 16.1834 18.1209C16.1654 18.0355 16.1582 17.9482 16.1617 17.861C16.1617 17.796 16.2007 17.731 16.2094 17.666C16.2622 17.3905 16.2869 17.1104 16.283 16.8299C16.2547 16.5452 16.2918 16.2577 16.3913 15.9894C16.4111 15.9087 16.4199 15.8256 16.4173 15.7425C16.4173 15.7165 16.4173 15.6819 16.4173 15.6732C16.5386 15.5909 16.5386 15.4566 16.5646 15.3353C16.6296 15.0234 16.6816 14.7114 16.7466 14.3995C16.7734 14.3127 16.8112 14.2297 16.8592 14.1526C16.9 14.0835 16.9448 14.017 16.9935 13.9533L17.3184 13.5201C17.4523 13.3509 17.5767 13.1745 17.691 12.9916C17.8594 12.7016 18.1055 12.4645 18.4015 12.3071C18.7853 12.0919 19.1518 11.8471 19.4975 11.5749C20.1053 11.0897 20.8245 10.7636 21.59 10.6262C21.9236 10.5655 22.2442 10.4485 22.5691 10.3619L22.894 10.2752C22.9125 10.271 22.9318 10.271 22.9503 10.2752C23.1109 10.3163 23.2793 10.3163 23.4399 10.2752C23.7041 10.2406 23.9727 10.2059 24.237 10.1799C24.4189 10.1799 24.6009 10.1539 24.7829 10.1453C24.8478 10.1453 24.9128 10.1756 24.9735 10.1756C25.1251 10.1756 25.2724 10.1756 25.4067 10.1756C25.8805 10.1258 26.3582 10.1258 26.832 10.1756C27.1093 10.2103 27.3865 10.2709 27.6594 10.3186H27.6854C27.8536 10.3298 28.0168 10.3802 28.162 10.4659C28.3483 10.5352 28.5302 10.6262 28.7208 10.6955C29.0474 10.813 29.3331 11.022 29.544 11.2977C29.7775 11.6057 29.9657 11.9456 30.1028 12.3071C30.1161 12.3415 30.132 12.3748 30.1505 12.4067C30.3229 12.6756 30.4571 12.9672 30.549 13.2731C30.6104 13.4465 30.6568 13.6248 30.6877 13.806C30.7241 13.983 30.8012 14.1491 30.9129 14.2912C31.0559 14.4732 31.1945 14.6638 31.3462 14.8501C31.3978 14.9211 31.4456 14.9948 31.4891 15.071C31.5281 15.1403 31.5541 15.2226 31.5974 15.292C31.6467 15.3783 31.7063 15.4584 31.7751 15.5302C32.0525 15.821 32.2248 16.1961 32.2646 16.596C32.2744 16.6562 32.2889 16.7156 32.3079 16.7736C32.347 16.9271 32.347 17.0879 32.3079 17.2415C32.2546 17.4789 32.2443 17.7239 32.2776 17.9649C32.2862 18.0861 32.2862 18.2077 32.2776 18.3288C32.2768 18.362 32.2844 18.3948 32.2995 18.4243C32.3146 18.4538 32.3369 18.4791 32.3642 18.4978C32.5289 18.6148 32.6978 18.7361 32.8581 18.8617C32.9116 18.9094 32.9608 18.9616 33.0054 19.0177C33.1397 19.165 33.287 19.3079 33.4126 19.4509C33.6303 19.7088 33.739 20.0413 33.7159 20.378C33.7179 20.3924 33.7179 20.4069 33.7159 20.4213C33.6564 20.5936 33.6186 20.7726 33.6033 20.9542C33.5962 21.059 33.5675 21.1612 33.519 21.2543C33.4706 21.3475 33.4034 21.4297 33.3217 21.4957C33.287 21.5217 33.2567 21.5564 33.2177 21.591L33.4646 21.7556C33.5178 21.7851 33.5641 21.8253 33.6007 21.8739C33.6373 21.9224 33.6632 21.978 33.6769 22.0372C33.7014 22.1482 33.7392 22.2559 33.7895 22.3578C33.8459 22.4661 33.7895 22.5831 33.8372 22.6784C33.8848 22.7737 33.8589 22.8604 33.8632 22.9557C33.8632 22.9297 33.8632 22.8993 33.8632 22.8777C33.8285 23.0336 33.7982 23.1896 33.7635 23.3456L33.7939 23.3846C34.0321 23.6705 33.6163 24.4763 33.6163 24.4763C33.5469 24.5889 33.4733 24.7059 33.4126 24.8228C33.3482 24.9429 33.2959 25.0692 33.2567 25.1998C33.2134 25.334 33.3 25.4337 33.378 25.5247C33.4615 25.6335 33.572 25.7186 33.6986 25.7716C33.7419 25.7716 33.7635 25.8496 33.7982 25.8886L33.9455 26.0705C33.9869 26.1186 34.0232 26.1709 34.0538 26.2265C34.1361 26.3868 34.1534 26.5774 34.3051 26.7117C34.3571 26.755 34.3614 26.8633 34.3614 26.9456C34.3517 27.0152 34.3343 27.0835 34.3094 27.1492C34.2531 27.3269 34.2054 27.5045 34.1448 27.6821C34.1145 27.7818 34.0711 27.8814 34.0321 27.9767C33.9932 28.072 33.9542 28.1153 33.9282 28.189C33.9115 28.2607 33.8722 28.3252 33.816 28.3728C33.7598 28.4204 33.6898 28.4486 33.6163 28.4532L33.4603 28.4792C33.4139 28.481 33.3687 28.4941 33.3286 28.5176C33.2886 28.541 33.2549 28.574 33.2307 28.6135C33.1533 28.7361 33.0409 28.8326 32.9081 28.8905C32.7752 28.9485 32.628 28.9652 32.4855 28.9385C32.1727 28.9006 31.8648 28.8295 31.5671 28.7262C31.4493 28.7073 31.3419 28.6475 31.2639 28.5572C31.2423 28.5392 31.2172 28.5259 31.1902 28.5182C30.9615 28.4019 30.7489 28.2562 30.5577 28.085C30.4897 28.0386 30.4131 28.0062 30.3324 27.9897C30.2934 27.9897 30.2458 27.9897 30.2068 27.9637C29.9908 27.9065 29.7672 27.8832 29.544 27.8944C29.3063 27.9165 29.0817 28.0136 28.9028 28.1717C28.5585 28.4847 28.2737 28.8575 28.0623 29.272C27.9064 29.5493 27.7808 29.8396 27.6291 30.1385C27.5704 30.284 27.5495 30.442 27.5685 30.5977C27.5583 30.915 27.5133 31.2303 27.4342 31.5378C27.3822 31.7717 27.3389 32.01 27.2912 32.2483C27.282 32.2822 27.2852 32.3184 27.3003 32.3502C27.3154 32.3819 27.3414 32.4073 27.3735 32.4216C27.6811 32.6165 27.9887 32.8201 28.3006 33.0064C28.4479 33.0974 28.6125 33.1494 28.7642 33.2274C29.1995 33.467 29.5931 33.7757 29.9295 34.1415C30.3466 34.5903 30.8098 34.994 31.3115 35.3458C31.4241 35.4238 31.5584 35.4671 31.6754 35.5408C31.7924 35.6144 31.983 35.766 32.139 35.8657C34.5002 34.6688 36.4842 32.8417 37.8712 30.5869C39.2583 28.332 39.9942 25.7373 39.9976 23.09Z" fill="#323232"/>
</g>
<defs>
<filter id="filter0_d_599_945" x="0.578947" y="0" width="50.8421" height="50.8421" filterUnits="userSpaceOnUse" color-interpolation-filters="sRGB">
<feFlood flood-opacity="0" result="BackgroundImageFix"/>
<feColorMatrix in="SourceAlpha" type="matrix" values="0 0 0 0 0 0 0 0 0 0 0 0 0 0 0 0 0 0 127 0" result="hardAlpha"/>
<feOffset dy="2.42105"/>
<feGaussianBlur stdDeviation="1.21053"/>
<feComposite in2="hardAlpha" operator="out"/>
<feColorMatrix type="matrix" values="0 0 0 0 0 0 0 0 0 0 0 0 0 0 0 0 0 0 0.25 0"/>
<feBlend mode="normal" in2="BackgroundImageFix" result="effect1_dropShadow_599_945"/>
<feBlend mode="normal" in="SourceGraphic" in2="effect1_dropShadow_599_945" result="shape"/>
</filter>
<filter id="filter1_ii_599_945" x="3" y="-4.50612" width="47.5959" height="52.102" filterUnits="userSpaceOnUse" color-interpolation-filters="sRGB">
<feFlood flood-opacity="0" result="BackgroundImageFix"/>
<feBlend mode="normal" in="SourceGraphic" in2="BackgroundImageFix" result="shape"/>
<feColorMatrix in="SourceAlpha" type="matrix" values="0 0 0 0 0 0 0 0 0 0 0 0 0 0 0 0 0 0 127 0" result="hardAlpha"/>
<feOffset dy="-6.10204"/>
<feGaussianBlur stdDeviation="2.25306"/>
<feComposite in2="hardAlpha" operator="arithmetic" k2="-1" k3="1"/>
<feColorMatrix type="matrix" values="0 0 0 0 0.196078 0 0 0 0 0.196078 0 0 0 0 0.196078 0 0 0 0.25 0"/>
<feBlend mode="normal" in2="shape" result="effect1_innerShadow_599_945"/>
<feColorMatrix in="SourceAlpha" type="matrix" values="0 0 0 0 0 0 0 0 0 0 0 0 0 0 0 0 0 0 127 0" result="hardAlpha"/>
<feOffset dx="1.59592" dy="1.59592"/>
<feGaussianBlur stdDeviation="1.17347"/>
<feComposite in2="hardAlpha" operator="arithmetic" k2="-1" k3="1"/>
<feColorMatrix type="matrix" values="0 0 0 0 0.960784 0 0 0 0 0.960784 0 0 0 0 0.960784 0 0 0 1 0"/>
<feBlend mode="normal" in2="effect1_innerShadow_599_945" result="effect2_innerShadow_599_945"/>
</filter>
</defs>
</svg>
